Coordinates
version=1
nRows=32
nColumns=12
inDegrees=yes

Units are S.I. units (second, meters, Newtons, ...)
Angles are in degrees

endheader
time	SC_y	SC_z	SC_x	AC_y	AC_z	AC_x	GH_y	GH_z	GH_yy	EL_x	PS_y
       0.0               -55.0          29.78          80.39          54.96         -6.245        -0.3787          150.0          38.26          4.375          39.21          119.0
   0.01306              -54.99          29.78          80.38          54.96         -6.245        -0.3771          150.0          38.27          4.382          39.22          119.0
   0.02612              -54.99          29.77          80.37          54.97         -6.245        -0.3754          149.9          38.28          4.391          39.23          119.0
   0.03919              -54.99          29.77          80.36          54.97         -6.244        -0.3736          149.9          38.29            4.4          39.24          119.0
   0.05225              -54.99          29.76          80.35          54.97         -6.244        -0.3716          149.8           38.3          4.409          39.25          119.0
   0.06531              -54.99          29.76          80.34          54.97         -6.244        -0.3695          149.8          38.31          4.419          39.26          119.0
   0.07837              -54.98          29.75          80.32          54.97         -6.243        -0.3673          149.7          38.32           4.43          39.27          119.1
   0.09143              -54.98          29.74          80.31          54.98         -6.243        -0.3649          149.6          38.33          4.441          39.28          119.1
    0.1045              -54.98          29.74          80.29          54.98         -6.243        -0.3624          149.6          38.34          4.453           39.3          119.1
    0.1176              -54.97          29.73          80.28          54.98         -6.242        -0.3596          149.5          38.35          4.467          39.31          119.1
    0.1306              -54.97          29.72          80.26          54.99         -6.242        -0.3567          149.4          38.37          4.481          39.32          119.1
    0.1437              -54.97          29.71          80.24          54.99         -6.241        -0.3535          149.3          38.38          4.496          39.34          119.1
    0.1567              -54.96           29.7          80.22           55.0         -6.241        -0.3501          149.2           38.4          4.512          39.36          119.1
    0.1698              -54.96          29.69           80.2           55.0          -6.24        -0.3464          149.1          38.41           4.53          39.37          119.1
    0.1829              -54.96          29.68          80.17           55.0          -6.24        -0.3425          149.0          38.43          4.549          39.39          119.1
    0.1959              -54.95          29.66          80.15          55.01         -6.239        -0.3381          148.9          38.45           4.57          39.42          119.1
     0.209              -54.94          29.65          80.12          55.02         -6.239        -0.3335          148.8          38.47          4.592          39.44          119.1
    0.2221              -54.94          29.64          80.09          55.02         -6.238        -0.3283          148.6          38.49          4.617          39.46          119.2
    0.2351              -54.93          29.62          80.06          55.03         -6.237        -0.3228          148.5          38.52          4.644          39.49          119.2
    0.2482              -54.93           29.6          80.02          55.04         -6.236        -0.3166          148.3          38.55          4.673          39.52          119.2
    0.2612              -54.92          29.58          79.98          55.04         -6.235        -0.3099          148.1          38.58          4.705          39.56          119.2
    0.2743              -54.91          29.56          79.93          55.05         -6.234        -0.3025          147.9          38.61          4.741          39.59          119.2
    0.2874               -54.9          29.54          79.88          55.06         -6.233        -0.2944          147.7          38.65           4.78          39.63          119.2
    0.3004              -54.89          29.51          79.83          55.07         -6.232        -0.2853          147.5          38.69          4.824          39.68          119.3
    0.3135              -54.88          29.48          79.77          55.09          -6.23        -0.2753          147.2          38.74          4.872          39.73          119.3
    0.3266              -54.86          29.45           79.7           55.1         -6.229        -0.2641          146.9          38.79          4.926          39.78          119.3
    0.3396              -54.85          29.41          79.62          55.12         -6.227        -0.2515          146.5          38.85          4.986          39.84          119.3
    0.3527              -54.83          29.37          79.54          55.13         -6.225        -0.2374          146.1          38.91          5.054          39.91          119.4
    0.3657              -54.82          29.33          79.44          55.15         -6.223        -0.2214          145.7          38.99          5.131          39.99          119.4
    0.3788               -54.8          29.27          79.33          55.17          -6.22        -0.2033          145.2          39.07          5.218          40.08          119.5
    0.3919              -54.77          29.21          79.21           55.2         -6.217        -0.1826          144.6          39.16          5.317          40.19          119.5
    0.4049              -54.74          29.15          79.07          55.23         -6.214        -0.1588          144.0          39.27          5.432           40.3          119.6
